<svg width="20" height="20" viewBox="0 0 20 20" fill="none" xmlns="http://www.w3.org/2000/svg">
<g clip-path="url(#clip0_11_113)">
<path d="M9.89996 7.61663C10.9666 7.66663 11.2416 8.57496 11.2583 8.99996H12.75C12.6833 7.34996 11.5083 6.34163 9.87496 6.34163C8.03329 6.34163 6.66663 7.49996 6.66663 10.1166C6.66663 11.7333 7.44163 13.65 9.86663 13.65C11.7166 13.65 12.7083 12.275 12.7333 11.1916H11.2416C11.2166 11.6833 10.8666 12.3416 9.88329 12.3916C8.79163 12.3583 8.33329 11.5083 8.33329 10.1166C8.33329 7.70829 9.39996 7.63329 9.89996 7.61663ZM9.99996 1.66663C5.39996 1.66663 1.66663 5.39996 1.66663 9.99996C1.66663 14.6 5.39996 18.3333 9.99996 18.3333C14.6 18.3333 18.3333 14.6 18.3333 9.99996C18.3333 5.39996 14.6 1.66663 9.99996 1.66663ZM9.99996 16.6666C6.32496 16.6666 3.33329 13.675 3.33329 9.99996C3.33329 6.32496 6.32496 3.33329 9.99996 3.33329C13.675 3.33329 16.6666 6.32496 16.6666 9.99996C16.6666 13.675 13.675 16.6666 9.99996 16.6666Z" fill="white"/>
</g>
<defs>
<clipPath id="clip0_11_113">
<rect width="20" height="20" fill="white"/>
</clipPath>
</defs>
</svg>
