<svg xmlns="http://www.w3.org/2000/svg" version="1.1" xmlns:xlink="http://www.w3.org/1999/xlink" xmlns:svgjs="http://svgjs.dev/svgjs" width="1000" height="1000" viewBox="0 0 1000 1000"><rect width="1000" height="1000" fill="#ffffff"></rect><g transform="matrix(0.7,0,0,0.7,150.0000000000001,106.25)"><svg viewBox="0 0 320 360" data-background-color="#ffffff" preserveAspectRatio="xMidYMid meet" height="1125" width="1000" xmlns="http://www.w3.org/2000/svg" xmlns:xlink="http://www.w3.org/1999/xlink"><g id="tight-bounds" transform="matrix(1,0,0,1,0,0)"><svg viewBox="0 0 320 360" height="360" width="320"><g><svg></svg></g><g><svg viewBox="0 0 320 360" height="360" width="320"><g><path xmlns="http://www.w3.org/2000/svg" d="M20.961 227.22l3.726 4.658-1.863-6.056c-0.466-2.795-3.726 0.466-1.863 1.398M25.153 224.425c1.397 2.329 2.795 4.658 2.795 6.987 0 3.261 2.795 4.658 5.123 5.589-3.261-3.726-5.124-13.974-7.918-12.576M204.017 26.929c7.918 0 15.371-0.932 23.756 0.931 20.495 5.124 37.729 15.371 49.374 29.811l32.606 52.169c1.397 13.042 4.192 27.482 3.726 43.319 3.261 0 2.795-4.658 6.521-5.59-3.726 9.316-5.59 20.961-6.521 34.469-2.329-7.453 0-18.632 0.466-24.687-3.261 5.124-5.124 1.397-5.124-0.932 0.466-3.726-1.397-3.261-2.795-4.658-5.124-4.658-8.384-9.782-12.11-17.7 2.329-6.055 2.795-14.905-4.658-19.563-2.329-1.397-5.124-3.726-6.521-7.453-1.863-5.124-5.124-11.179-4.193-19.097 0.466-2.329-6.987 5.124-11.179 1.863-18.166-12.576-36.332-27.016-58.224-39.127-11.645 0-20.029-4.192-24.221-9.316-3.726-4.658-0.932-10.713 4.658-11.179 3.261 0 6.987-0.932 9.782 0.932 0.466-1.863 2.329-4.192 4.657-4.192M157.904 16.215l0.932 0.466c4.658 0.932 6.987 7.453 12.11 5.124 0 3.261 0.466 6.521-0.466 8.85-1.397 3.726-5.59 3.726-8.85 3.726-31.208-1.863-49.374 11.179-68.471 22.358-5.124 3.261-10.713 5.59-14.906 9.782-20.029 18.632-41.921 35.866-47.045 70.335l-4.192 38.195c-0.466 4.192-5.124 8.384-4.192 13.508l3.26 22.824c-3.261-3.261-5.124 0.932-4.192 2.795 0.466 1.397 2.329 6.055 5.124 1.863 3.726 6.987 7.453 20.495 12.576 26.55 15.837 18.632 36.332 35.4 53.101 52.169 4.192-0.932 7.453-0.932 8.384-3.727 1.397 2.795-1.397 5.59-3.726 6.056 7.453 4.658 15.837 8.85 27.016 9.781 14.44 0.932 27.948 3.261 40.524 6.522 6.521-1.863 13.042-2.795 20.029-3.261 2.329 0 3.726-3.726 6.521-4.658l0.466-4.658c2.795 4.192 2.329-1.397 0.466-4.192 3.261 2.795 4.192 5.124 5.589 6.987 0-1.397 3.726-6.521 3.727-0.466l0.931-6.055c1.397-0.932 1.863 5.124 3.261 0.931 1.397-4.192 4.192-0.932 6.987-2.329-0.932 1.863-0.466 5.59 2.794 3.261l3.727-3.261c2.329 5.59 6.055 3.261 7.918 2.329 20.495-13.042 40.99-28.413 60.553-43.784l-0.466 6.055 2.329-7.453c2.329 2.329 4.192 0.466 5.124-0.931 2.795-4.658 6.521-9.316 12.577-13.508-7.453 20.029-16.303 35.866-27.482 48.908l-4.658 5.59c0 3.261-0.932 7.453-4.658 7.918-1.863 0.466-5.59-0.932-8.384 1.863-1.397 1.863 3.261 5.59-0.466 2.795-3.261-2.329-6.521 0-10.248 0.932-2.795 0.932 1.863 3.726 2.795 5.589 0.932 1.863 1.863 3.726 1.398 6.056l-5.124-5.59c-6.055 3.261-9.782 9.316-14.906 13.974-2.329 1.863-1.397 5.124-1.397 7.918-3.261 0-6.987-0.932-8.85 0.932-1.397 1.863-0.932 4.658-0.932 7.453-4.658-0.466-5.124-7.453-9.315-6.056-4.192 0.932-8.85 1.397-12.577 3.727 2.795 5.59-4.658 2.329-3.726 3.26-6.987-4.192-13.042-7.453-20.495-4.658-15.837-5.124-35.4-2.795-49.84-0.931 0-2.329 0.466-4.658-0.466-5.124-0.932 2.329-3.726 1.397-3.26 1.397-8.85-6.055-17.7-9.782-27.016-14.905-8.384 0.932-16.303-3.261-18.632-5.59-6.521-6.055-13.974-2.795-20.029-4.192-13.042-3.261-17.7-16.769-19.098-26.084-0.932-4.658-4.658-6.521-6.055-6.056-6.055-19.563-15.371-37.263-22.824-55.429-1.863-4.658-1.397-9.316-1.397-14.44 2.329 0.932 4.658 0.466 4.192-2.794-2.329-15.371-7.918-27.016-13.974-38.195 3.261-15.837 3.726-34.469 11.179-48.443 6.521-12.576 18.632-19.098 27.016-29.811 2.795-3.726 2.795-8.85 5.59-12.11 9.316-9.316 18.632-19.098 28.879-27.482 4.658-3.726 10.247 0 17.234-1.397 2.329-8.384 11.645-15.837 20.495-13.508 3.726 0.932 11.179-8.85 13.508-9.782 3.726-1.397 1.863 3.726 1.863 6.987 8.85-6.987 20.961-10.713 32.14-14.906" fill="#000000" fill-rule="nonzero" stroke="none" stroke-width="1" stroke-linecap="butt" stroke-linejoin="miter" stroke-miterlimit="10" stroke-dasharray="" stroke-dashoffset="0" font-family="none" font-weight="none" font-size="none" text-anchor="none" style="mix-blend-mode: normal" data-fill-palette-color="tertiary"></path></g><g transform="matrix(1,0,0,1,64,108.4952801920319)"><svg viewBox="0 0 192 143.0094396159362" height="143.0094396159362" width="192"><g><svg viewBox="0 0 192 143.0094396159362" height="143.0094396159362" width="192"><g><svg viewBox="0 0 192 143.0094396159362" height="143.0094396159362" width="192"><g transform="matrix(1,0,0,1,0,85.24112139620266)"><svg viewBox="0 0 192 57.768318219733544" height="57.768318219733544" width="192"><g id="textblocktransform"><svg viewBox="0 0 192 57.768318219733544" height="57.768318219733544" width="192" id="textblock"><g><svg viewBox="0 0 192 37.041923306179214" height="37.041923306179214" width="192"><g transform="matrix(1,0,0,1,0,0)"><svg width="192" viewBox="1.7000000476837158 -39.150001525878906 251.6300048828125 48.55000305175781" height="37.041923306179214" data-palette-color="#010c80"><path d="M22.9 0L22.9 0 22.9-1Q24.5-1.1 25.3-1.4 26.1-1.7 26.38-2.6 26.65-3.5 26.65-5.3L26.65-5.3 26.65-30.1Q26.65-31.95 26.38-32.83 26.1-33.7 25.28-34.02 24.45-34.35 22.9-34.4L22.9-34.4 22.9-35.4Q24.25-35.35 26.43-35.3 28.6-35.25 30.75-35.25L30.75-35.25Q33.05-35.25 35.08-35.3 37.1-35.35 38.35-35.4L38.35-35.4 38.35-34.4Q36.75-34.35 35.93-34.02 35.1-33.7 34.85-32.83 34.6-31.95 34.6-30.1L34.6-30.1 34.6-5.3Q34.6-3.5 34.88-2.6 35.15-1.7 35.95-1.4 36.75-1.1 38.35-1L38.35-1 38.35 0Q37.1-0.1 35.08-0.13 33.05-0.15 30.75-0.15L30.75-0.15Q28.6-0.15 26.43-0.13 24.25-0.1 22.9 0ZM1.7 0L1.7 0 1.7-1Q3.3-1.1 4.1-1.4 4.9-1.7 5.18-2.6 5.45-3.5 5.45-5.3L5.45-5.3 5.45-30.1Q5.45-31.95 5.18-32.83 4.9-33.7 4.08-34.02 3.25-34.35 1.7-34.4L1.7-34.4 1.7-35.4Q3-35.35 5.08-35.3 7.15-35.25 9.6-35.25L9.6-35.25Q11.7-35.25 13.75-35.3 15.8-35.35 17.15-35.4L17.15-35.4 17.15-34.4Q15.55-34.35 14.73-34.02 13.9-33.7 13.65-32.83 13.4-31.95 13.4-30.1L13.4-30.1 13.4-5.3Q13.4-3.5 13.68-2.6 13.95-1.7 14.75-1.4 15.55-1.1 17.15-1L17.15-1 17.15 0Q15.8-0.1 13.75-0.13 11.7-0.15 9.6-0.15L9.6-0.15Q7.15-0.15 5.08-0.13 3-0.1 1.7 0ZM29.9-17.3L10.15-17.3 10.15-18.3 29.9-18.3 29.9-17.3ZM47.5 0.35L47.5 0.35Q44.15 0.35 42.65-1.4 41.15-3.15 41.15-5.65L41.15-5.65Q41.15-7.8 42.12-9.15 43.1-10.5 44.65-11.38 46.2-12.25 47.92-12.83 49.65-13.4 51.22-13.98 52.8-14.55 53.77-15.3 54.75-16.05 54.75-17.2L54.75-17.2 54.75-21.1Q54.75-22.4 54.32-23.43 53.9-24.45 53.02-25 52.15-25.55 50.75-25.55L50.75-25.55Q49.75-25.55 48.75-25.28 47.75-25 47.1-24.35L47.1-24.35Q48.5-23.85 49.27-22.83 50.05-21.8 50.05-20.5L50.05-20.5Q50.05-18.8 48.87-17.8 47.7-16.8 46.1-16.8L46.1-16.8Q44.3-16.8 43.37-17.93 42.45-19.05 42.45-20.65L42.45-20.65Q42.45-22.1 43.17-23.05 43.9-24 45.2-24.85L45.2-24.85Q46.6-25.65 48.57-26.1 50.55-26.55 52.85-26.55L52.85-26.55Q55.15-26.55 57-26.08 58.85-25.6 60.1-24.35L60.1-24.35Q61.25-23.2 61.6-21.53 61.95-19.85 61.95-17.3L61.95-17.3 61.95-3.7Q61.95-2.5 62.2-2 62.45-1.5 63.05-1.5L63.05-1.5Q63.55-1.5 64-1.75 64.45-2 64.85-2.35L64.85-2.35 65.35-1.5Q64.3-0.6 62.92-0.13 61.55 0.35 59.85 0.35L59.85 0.35Q56.85 0.35 55.87-0.88 54.9-2.1 54.85-3.7L54.85-3.7Q53.6-1.65 51.77-0.65 49.95 0.35 47.5 0.35ZM51.35-2.85L51.35-2.85Q52.3-2.85 53.12-3.3 53.95-3.75 54.75-4.9L54.75-4.9 54.75-15.15Q54.15-14.15 53.07-13.48 52-12.8 50.87-12.03 49.75-11.25 49-10.05 48.25-8.85 48.25-6.85L48.25-6.85Q48.25-4.7 49.15-3.78 50.05-2.85 51.35-2.85ZM85.4-26.55L85.4-26.55Q87.5-26.55 88.82-26.03 90.15-25.5 90.9-24.6L90.9-24.6Q91.7-23.65 92.07-22.15 92.45-20.65 92.45-18.1L92.45-18.1 92.45-4.65Q92.45-2.55 93.17-1.8 93.9-1.05 95.65-1.05L95.65-1.05 95.65 0Q94.7-0.05 92.8-0.13 90.9-0.2 89.05-0.2L89.05-0.2Q87.15-0.2 85.32-0.13 83.5-0.05 82.55 0L82.55 0 82.55-1.05Q84.05-1.05 84.65-1.8 85.25-2.55 85.25-4.65L85.25-4.65 85.25-20.2Q85.25-21.45 85-22.38 84.75-23.3 84.1-23.83 83.45-24.35 82.15-24.35L82.15-24.35Q80.05-24.35 78.62-22.7 77.2-21.05 77.2-18.55L77.2-18.55 77.2-4.65Q77.2-2.55 77.82-1.8 78.45-1.05 79.9-1.05L79.9-1.05 79.9 0Q79-0.05 77.27-0.13 75.55-0.2 73.7-0.2L73.7-0.2Q71.8-0.2 69.8-0.13 67.8-0.05 66.8 0L66.8 0 66.8-1.05Q68.55-1.05 69.27-1.8 70-2.55 70-4.65L70-4.65 70-20.4Q70-22.65 69.32-23.73 68.65-24.8 66.8-24.8L66.8-24.8 66.8-25.85Q68.4-25.7 69.9-25.7L69.9-25.7Q72-25.7 73.82-25.88 75.65-26.05 77.2-26.4L77.2-26.4 77.2-21.9Q78.45-24.45 80.6-25.5 82.75-26.55 85.4-26.55ZM122.09-39.15L122.09-39.15 122.09-5.5Q122.09-3.25 122.79-2.18 123.49-1.1 125.29-1.1L125.29-1.1 125.29-0.05Q123.74-0.2 122.19-0.2L122.19-0.2Q120.09-0.2 118.27-0.05 116.44 0.1 114.89 0.5L114.89 0.5 114.89-33.15Q114.89-35.4 114.22-36.48 113.54-37.55 111.69-37.55L111.69-37.55 111.69-38.6Q113.29-38.45 114.79-38.45L114.79-38.45Q116.84-38.45 118.69-38.63 120.54-38.8 122.09-39.15ZM109.34-26.55L109.34-26.55Q111.54-26.55 113.22-25.83 114.89-25.1 115.84-23.4L115.84-23.4 115.24-22.85Q114.59-24.05 113.52-24.58 112.44-25.1 111.24-25.1L111.24-25.1Q108.69-25.1 107.19-22.13 105.69-19.15 105.74-12.95L105.74-12.95Q105.74-8.7 106.32-6.18 106.89-3.65 107.97-2.55 109.04-1.45 110.44-1.45L110.44-1.45Q112.14-1.45 113.49-2.8 114.84-4.15 114.94-6.45L114.94-6.45 115.19-4.7Q114.44-2.05 112.77-0.68 111.09 0.7 108.39 0.7L108.39 0.7Q105.44 0.7 103.12-0.75 100.79-2.2 99.49-5.23 98.19-8.25 98.19-13.05L98.19-13.05Q98.19-17.6 99.64-20.58 101.09-23.55 103.62-25.05 106.14-26.55 109.34-26.55ZM151.84-25.85L151.84-25.85 151.84-24.85Q150.89-24.6 150.04-23.68 149.19-22.75 148.39-20.55L148.39-20.55 141.34-0.75 139.49 2.75 128.59-22Q127.74-23.95 126.92-24.38 126.09-24.8 125.49-24.8L125.49-24.8 125.49-25.85Q127.14-25.7 128.92-25.63 130.69-25.55 132.34-25.55L132.34-25.55Q134.39-25.55 136.09-25.65 137.79-25.75 139.29-25.85L139.29-25.85 139.29-24.8Q138.29-24.8 137.42-24.68 136.54-24.55 136.22-23.98 135.89-23.4 136.49-22L136.49-22 142.79-6.8 142.34-6.5 146.04-16.85Q147.44-20.9 146.49-22.78 145.54-24.65 143.14-24.85L143.14-24.85 143.14-25.85Q144.29-25.8 145.64-25.75 146.99-25.7 147.99-25.7L147.99-25.7Q148.99-25.7 150.09-25.75 151.19-25.8 151.84-25.85ZM140.14-0.65L141.34-0.75 139.44 4.6Q138.49 7.15 137.24 8.15L137.24 8.15Q136.54 8.75 135.44 9.08 134.34 9.4 132.89 9.4L132.89 9.4Q131.69 9.4 130.42 9 129.14 8.6 128.29 7.7 127.44 6.8 127.44 5.4L127.44 5.4Q127.44 3.85 128.54 2.93 129.64 2 131.44 2L131.44 2Q133.09 2 134.14 2.8 135.19 3.6 135.19 5.15L135.19 5.15Q135.19 6.15 134.57 7.05 133.94 7.95 132.69 8.4L132.69 8.4Q132.94 8.45 133.29 8.45 133.64 8.45 133.84 8.45L133.84 8.45Q135.34 8.45 136.49 7.5 137.64 6.55 138.39 4.5L138.39 4.5 140.14-0.65ZM171.49-26.55L171.49-26.55Q173.59-26.55 174.89-26.03 176.19-25.5 176.99-24.6L176.99-24.6Q177.79-23.65 178.14-22.13 178.49-20.6 178.49-18.1L178.49-18.1 178.49-4.65Q178.49-2.55 179.14-1.8 179.79-1.05 181.39-1.05L181.39-1.05 181.39 0Q180.49-0.05 178.66-0.13 176.84-0.2 175.09-0.2L175.09-0.2Q173.29-0.2 171.54-0.13 169.79-0.05 168.89 0L168.89 0 168.89-1.05Q170.24-1.05 170.76-1.8 171.29-2.55 171.29-4.65L171.29-4.65 171.29-20.2Q171.29-21.45 171.09-22.38 170.89-23.3 170.31-23.83 169.74-24.35 168.59-24.35L168.59-24.35Q167.29-24.35 166.19-23.6 165.09-22.85 164.41-21.53 163.74-20.2 163.74-18.55L163.74-18.55 163.74-4.65Q163.74-2.55 164.29-1.8 164.84-1.05 166.14-1.05L166.14-1.05 166.14 0Q165.34-0.05 163.66-0.13 161.99-0.2 160.24-0.2L160.24-0.2Q158.34-0.2 156.34-0.13 154.34-0.05 153.34 0L153.34 0 153.34-1.05Q155.09-1.05 155.81-1.8 156.54-2.55 156.54-4.65L156.54-4.65 156.54-20.4Q156.54-22.65 155.86-23.73 155.19-24.8 153.34-24.8L153.34-24.8 153.34-25.85Q154.94-25.7 156.44-25.7L156.44-25.7Q158.54-25.7 160.36-25.88 162.19-26.05 163.74-26.4L163.74-26.4 163.74-21.9Q164.94-24.4 166.99-25.48 169.04-26.55 171.49-26.55ZM186.54-26.55L186.54-26.55Q188.64-26.55 189.94-26.03 191.24-25.5 192.04-24.6L192.04-24.6Q192.84-23.65 193.19-22.13 193.54-20.6 193.54-18.1L193.54-18.1 193.54-4.65Q193.54-2.55 194.26-1.8 194.99-1.05 196.74-1.05L196.74-1.05 196.74 0Q195.79-0.05 193.89-0.13 191.99-0.2 190.14-0.2L190.14-0.2Q188.34-0.2 186.59-0.13 184.84-0.05 183.94 0L183.94 0 183.94-1.05Q185.29-1.05 185.81-1.8 186.34-2.55 186.34-4.65L186.34-4.65 186.34-20.2Q186.34-21.45 186.11-22.38 185.89-23.3 185.26-23.83 184.64-24.35 183.34-24.35L183.34-24.35Q181.39-24.35 179.94-22.63 178.49-20.9 178.44-18.4L178.44-18.4 178.19-21.45Q179.54-24.45 181.76-25.5 183.99-26.55 186.54-26.55ZM205.19 0.35L205.19 0.35Q201.84 0.35 200.34-1.4 198.84-3.15 198.84-5.65L198.84-5.65Q198.84-7.8 199.81-9.15 200.79-10.5 202.34-11.38 203.89-12.25 205.61-12.83 207.34-13.4 208.91-13.98 210.49-14.55 211.46-15.3 212.44-16.05 212.44-17.2L212.44-17.2 212.44-21.1Q212.44-22.4 212.01-23.43 211.59-24.45 210.71-25 209.84-25.55 208.44-25.55L208.44-25.55Q207.44-25.55 206.44-25.28 205.44-25 204.79-24.35L204.79-24.35Q206.19-23.85 206.96-22.83 207.74-21.8 207.74-20.5L207.74-20.5Q207.74-18.8 206.56-17.8 205.39-16.8 203.79-16.8L203.79-16.8Q201.99-16.8 201.06-17.93 200.14-19.05 200.14-20.65L200.14-20.65Q200.14-22.1 200.86-23.05 201.59-24 202.89-24.85L202.89-24.85Q204.29-25.65 206.26-26.1 208.24-26.55 210.54-26.55L210.54-26.55Q212.84-26.55 214.69-26.08 216.54-25.6 217.79-24.35L217.79-24.35Q218.94-23.2 219.29-21.53 219.64-19.85 219.64-17.3L219.64-17.3 219.64-3.7Q219.64-2.5 219.89-2 220.14-1.5 220.74-1.5L220.74-1.5Q221.24-1.5 221.69-1.75 222.14-2 222.54-2.35L222.54-2.35 223.04-1.5Q221.99-0.6 220.61-0.13 219.24 0.35 217.54 0.35L217.54 0.35Q214.54 0.35 213.56-0.88 212.59-2.1 212.54-3.7L212.54-3.7Q211.29-1.65 209.46-0.65 207.64 0.35 205.19 0.35ZM209.04-2.85L209.04-2.85Q209.99-2.85 210.81-3.3 211.64-3.75 212.44-4.9L212.44-4.9 212.44-15.15Q211.84-14.15 210.76-13.48 209.69-12.8 208.56-12.03 207.44-11.25 206.69-10.05 205.94-8.85 205.94-6.85L205.94-6.85Q205.94-4.7 206.84-3.78 207.74-2.85 209.04-2.85ZM243.08-26.55L243.08-26.55Q245.18-26.55 246.51-26.03 247.83-25.5 248.58-24.6L248.58-24.6Q249.38-23.65 249.76-22.15 250.13-20.65 250.13-18.1L250.13-18.1 250.13-4.65Q250.13-2.55 250.86-1.8 251.58-1.05 253.33-1.05L253.33-1.05 253.33 0Q252.38-0.05 250.48-0.13 248.58-0.2 246.73-0.2L246.73-0.2Q244.83-0.2 243.01-0.13 241.18-0.05 240.23 0L240.23 0 240.23-1.05Q241.73-1.05 242.33-1.8 242.93-2.55 242.93-4.65L242.93-4.65 242.93-20.2Q242.93-21.45 242.68-22.38 242.43-23.3 241.78-23.83 241.13-24.35 239.83-24.35L239.83-24.35Q237.73-24.35 236.31-22.7 234.88-21.05 234.88-18.55L234.88-18.55 234.88-4.65Q234.88-2.55 235.51-1.8 236.13-1.05 237.58-1.05L237.58-1.05 237.58 0Q236.68-0.05 234.96-0.13 233.23-0.2 231.38-0.2L231.38-0.2Q229.48-0.2 227.48-0.13 225.48-0.05 224.48 0L224.48 0 224.48-1.05Q226.23-1.05 226.96-1.8 227.68-2.55 227.68-4.65L227.68-4.65 227.68-20.4Q227.68-22.65 227.01-23.73 226.33-24.8 224.48-24.8L224.48-24.8 224.48-25.85Q226.08-25.7 227.58-25.7L227.58-25.7Q229.68-25.7 231.51-25.88 233.33-26.05 234.88-26.4L234.88-26.4 234.88-21.9Q236.13-24.45 238.28-25.5 240.43-26.55 243.08-26.55Z" opacity="1" transform="matrix(1,0,0,1,0,0)" fill="#000000" class="wordmark-text-0" data-fill-palette-color="primary" id="text-0"></path></svg></g></svg></g><g transform="matrix(1,0,0,1,0,42.44722892271011)"><svg viewBox="0 0 192 15.32108929702343" height="15.32108929702343" width="192"><g transform="matrix(1,0,0,1,0,0)"><svg width="192" viewBox="-0.5 -32.70000076293945 552.5900268554688 44.099998474121094" height="15.32108929702343" data-palette-color="#77d4fc"><path d="M28.8-0.9L28.8 0 18.55 0 18.55-0.9 21.8-0.9 18.3-10.55 7.3-10.55 3.8-0.9 7.05-0.9 7.05 0-0.5 0-0.5-0.9 1.35-0.9Q2.05-0.9 2.3-1.6L2.3-1.6 13.3-31.5 15-31.5 26-1.6Q26.25-0.9 26.95-0.9L26.95-0.9 28.8-0.9ZM17.8-11.95L12.85-25.6 7.85-11.95 17.8-11.95ZM32.85-1.6L32.85-1.6 32.85-30.8Q32.85-31.5 32.15-31.5L32.15-31.5 29.8-31.5 29.8-32.4 32.25-32.4Q35.25-32.4 36.45-32.7L36.45-32.7 36.45-1.6Q36.45-0.9 37.15-0.9L37.15-0.9 39.5-0.9 39.5 0 29.8 0 29.8-0.9 32.15-0.9Q32.85-0.9 32.85-1.6ZM45.55-1.6L45.55-1.6 45.55-30.8Q45.55-31.5 44.85-31.5L44.85-31.5 42.5-31.5 42.5-32.4 44.95-32.4Q47.95-32.4 49.15-32.7L49.15-32.7 49.15-1.6Q49.15-0.9 49.85-0.9L49.85-0.9 52.2-0.9 52.2 0 42.5 0 42.5-0.9 44.85-0.9Q45.55-0.9 45.55-1.6ZM88.04-14.6L88.04-14.6 88.04-1.5Q88.04-0.9 88.74-0.9L88.74-0.9 91.09-0.9 91.09 0 82.09 0 82.09-0.9 83.74-0.9Q84.44-0.9 84.44-1.5L84.44-1.5 84.44-15.25Q84.44-17.8 83.32-19.03 82.19-20.25 80.34-20.25L80.34-20.25Q77.74-20.25 76.04-17.18 74.34-14.1 74.34-8.35L74.34-8.35 74.34-1.6Q74.34-0.9 75.04-0.9L75.04-0.9 76.69-0.9 76.69 0 67.69 0 67.69-0.9 70.04-0.9Q70.74-0.9 70.74-1.5L70.74-1.5 70.74-30.8Q70.74-31.5 70.04-31.5L70.04-31.5 67.69-31.5 67.69-32.4 70.14-32.4Q73.14-32.4 74.34-32.7L74.34-32.7 74.34-15.1Q76.04-22.2 81.84-22.2L81.84-22.2Q84.44-22.2 86.24-20.33 88.04-18.45 88.04-14.6ZM106.89-11.2L106.89-11.65 106.94-13.4 106.94-15.15Q106.94-21 103.14-21L103.14-21Q101.49-21 100.56-19.88 99.64-18.75 99.64-17.25 99.64-15.75 100.04-14.65L100.04-14.65Q99.19-13.9 97.69-13.9 96.19-13.9 96.19-16.35 96.19-18.8 98.11-20.5 100.04-22.2 103.59-22.2L103.59-22.2Q110.54-22.2 110.54-14L110.54-14 110.54-3.75Q110.54-1.05 112.04-1.05L112.04-1.05Q112.74-1.05 113.26-1.7 113.79-2.35 113.79-3.2 113.79-4.05 113.64-4.8L113.64-4.8 114.59-4.95Q114.79-4.2 114.79-3.3L114.79-3.3Q114.79-1.5 113.71-0.45 112.64 0.6 110.89 0.6 109.14 0.6 108.04-0.83 106.94-2.25 106.94-5.1L106.94-5.1 106.94-6Q106.09-2.6 104.24-1 102.39 0.6 99.96 0.6 97.54 0.6 96.06-0.93 94.59-2.45 94.59-4.98 94.59-7.5 96.94-9.47 99.29-11.45 103.69-11.45L103.69-11.45Q104.64-11.45 106.89-11.2L106.89-11.2ZM101.09-1.3L101.09-1.3Q103.19-1.3 104.86-3.68 106.54-6.05 106.84-10.35L106.84-10.35Q106.34-10.4 105.44-10.4L105.44-10.4Q101.44-10.4 99.71-8.72 97.99-7.05 97.99-4.85L97.99-4.85Q97.99-3.4 98.84-2.35 99.69-1.3 101.09-1.3ZM138.14-14.6L138.14-14.6 138.14-1.5Q138.14-0.9 138.84-0.9L138.84-0.9 141.19-0.9 141.19 0 132.19 0 132.19-0.9 133.84-0.9Q134.54-0.9 134.54-1.5L134.54-1.5 134.54-15.25Q134.54-17.8 133.41-19.03 132.29-20.25 130.44-20.25L130.44-20.25Q127.84-20.25 126.14-17.18 124.44-14.1 124.44-8.35L124.44-8.35 124.44-1.6Q124.44-0.9 125.14-0.9L125.14-0.9 126.79-0.9 126.79 0 117.79 0 117.79-0.9 120.14-0.9Q120.84-0.9 120.84-1.5L120.84-1.5 120.84-20Q120.84-20.7 120.14-20.7L120.14-20.7 117.79-20.7 117.79-21.6 120.24-21.6Q123.24-21.6 124.44-21.9L124.44-21.9 124.44-15.1Q126.14-22.2 131.94-22.2L131.94-22.2Q134.54-22.2 136.34-20.33 138.14-18.45 138.14-14.6ZM159.78 0.3L159.78 0.3 159.78-4Q156.98 0.6 153.16 0.6 149.33 0.6 147.13-2.45 144.93-5.5 144.93-10.75 144.93-16 147.73-19.1 150.53-22.2 154.78-22.2L154.78-22.2Q157.53-22.2 159.78-20.85L159.78-20.85 159.78-30.8Q159.78-31.5 159.08-31.5L159.08-31.5 156.73-31.5 156.73-32.4 159.18-32.4Q162.18-32.4 163.38-32.7L163.38-32.7 163.38-1.6Q163.38-0.9 164.08-0.9L164.08-0.9 166.43-0.9 166.43 0 163.98 0Q160.98 0 159.78 0.3ZM154.91-20.7Q152.33-20.7 150.53-18.13 148.73-15.55 148.73-10.95 148.73-6.35 150.21-3.83 151.68-1.3 153.93-1.3L153.93-1.3Q157.18-1.3 159.78-5.85L159.78-5.85 159.78-19.3Q157.48-20.7 154.91-20.7ZM182.43-20.7L182.43-21.6 188.78-21.6 188.78-20.7 186.93-20.7Q186.48-20.7 186.23-20L186.23-20 177.58 3.15Q177.43 3.6 177.08 4.5L177.08 4.5 176.53 5.85Q176.38 6.3 176.08 7.08 175.78 7.85 175.58 8.28 175.38 8.7 175.08 9.3L175.08 9.3Q174.73 10.05 174.08 10.73 173.43 11.4 172.73 11.4 172.03 11.4 171.26 10.53 170.48 9.65 170.33 8.65L170.33 8.65Q174.88 6.7 176.53 2.15L176.53 2.15 177.38-0.15 169.98-20Q169.73-20.7 169.28-20.7L169.28-20.7 167.43-20.7 167.43-21.6 175.93-21.6 175.93-20.7 173.43-20.7 179.18-4.9 184.98-20.7 182.43-20.7ZM223.58-14.6L223.58-14.6 223.58-1.5Q223.58-0.9 224.28-0.9L224.28-0.9 226.63-0.9 226.63 0 217.63 0 217.63-0.9 219.28-0.9Q219.98-0.9 219.98-1.5L219.98-1.5 219.98-15.25Q219.98-17.8 218.93-19.03 217.88-20.25 216.08-20.25L216.08-20.25Q213.58-20.25 211.98-17.03 210.38-13.8 210.38-7.75L210.38-7.75 210.38-1.6Q210.38-0.9 211.08-0.9L211.08-0.9 213.43-0.9 213.43 0 204.43 0 204.43-0.9 206.08-0.9Q206.78-0.9 206.78-1.5L206.78-1.5 206.78-15.25Q206.78-17.8 205.73-19.03 204.68-20.25 202.88-20.25L202.88-20.25Q200.38-20.25 198.78-17.03 197.18-13.8 197.18-7.75L197.18-7.75 197.18-1.6Q197.18-0.9 197.88-0.9L197.88-0.9 199.53-0.9 199.53 0 190.53 0 190.53-0.9 192.88-0.9Q193.58-0.9 193.58-1.5L193.58-1.5 193.58-20Q193.58-20.7 192.88-20.7L192.88-20.7 190.53-20.7 190.53-21.6 192.98-21.6Q195.98-21.6 197.18-21.9L197.18-21.9 197.18-15.2Q198.83-22.2 204.28-22.2L204.28-22.2Q206.68-22.2 208.45-20.45 210.23-18.7 210.38-15.15L210.38-15.15Q212.03-22.2 217.48-22.2L217.48-22.2Q219.98-22.2 221.78-20.33 223.58-18.45 223.58-14.6ZM242.68-11.2L242.68-11.65 242.73-13.4 242.73-15.15Q242.73-21 238.93-21L238.93-21Q237.28-21 236.35-19.88 235.43-18.75 235.43-17.25 235.43-15.75 235.83-14.65L235.83-14.65Q234.98-13.9 233.48-13.9 231.98-13.9 231.98-16.35 231.98-18.8 233.9-20.5 235.83-22.2 239.38-22.2L239.38-22.2Q246.33-22.2 246.33-14L246.33-14 246.33-3.75Q246.33-1.05 247.83-1.05L247.83-1.05Q248.53-1.05 249.05-1.7 249.58-2.35 249.58-3.2 249.58-4.05 249.43-4.8L249.43-4.8 250.38-4.95Q250.58-4.2 250.58-3.3L250.58-3.3Q250.58-1.5 249.5-0.45 248.43 0.6 246.68 0.6 244.93 0.6 243.83-0.83 242.73-2.25 242.73-5.1L242.73-5.1 242.73-6Q241.88-2.6 240.03-1 238.18 0.6 235.75 0.6 233.33 0.6 231.85-0.93 230.38-2.45 230.38-4.98 230.38-7.5 232.73-9.47 235.08-11.45 239.48-11.45L239.48-11.45Q240.43-11.45 242.68-11.2L242.68-11.2ZM236.88-1.3L236.88-1.3Q238.98-1.3 240.65-3.68 242.33-6.05 242.63-10.35L242.63-10.35Q242.13-10.4 241.23-10.4L241.23-10.4Q237.23-10.4 235.5-8.72 233.78-7.05 233.78-4.85L233.78-4.85Q233.78-3.4 234.63-2.35 235.48-1.3 236.88-1.3ZM273.92-14.6L273.92-14.6 273.92-1.5Q273.92-0.9 274.62-0.9L274.62-0.9 276.97-0.9 276.97 0 267.97 0 267.97-0.9 269.62-0.9Q270.32-0.9 270.32-1.5L270.32-1.5 270.32-15.25Q270.32-17.8 269.2-19.03 268.07-20.25 266.22-20.25L266.22-20.25Q263.62-20.25 261.92-17.18 260.22-14.1 260.22-8.35L260.22-8.35 260.22-1.6Q260.22-0.9 260.92-0.9L260.92-0.9 262.57-0.9 262.57 0 253.57 0 253.57-0.9 255.92-0.9Q256.62-0.9 256.62-1.5L256.62-1.5 256.62-20Q256.62-20.7 255.92-20.7L255.92-20.7 253.57-20.7 253.57-21.6 256.02-21.6Q259.02-21.6 260.22-21.9L260.22-21.9 260.22-15.1Q261.92-22.2 267.72-22.2L267.72-22.2Q270.32-22.2 272.12-20.33 273.92-18.45 273.92-14.6ZM299.72-13.55L299.72-13.55 304.92-11.6Q306.77-10.9 307.74-9.47 308.72-8.05 308.72-6.3L308.72-6.3Q308.72-3.6 306.57-1.5 304.42 0.6 300.79 0.6 297.17 0.6 293.97-0.75L293.97-0.75Q294.27-1.95 294.27-4.95L294.27-4.95 294.27-6.95 295.17-6.95 295.52-4.35Q295.97-0.6 300.77-0.6L300.77-0.6Q302.92-0.6 304.34-1.93 305.77-3.25 305.77-4.95L305.77-4.95Q305.77-7.3 302.92-8.35L302.92-8.35 297.72-10.3Q295.97-10.95 295.07-12.35 294.17-13.75 294.17-15.5L294.17-15.5Q294.17-18.15 296.07-20.18 297.97-22.2 300.84-22.2 303.72-22.2 307.32-20.85L307.32-20.85Q307.02-19.65 307.02-16.65L307.02-16.65 307.02-14.65 306.12-14.65 305.77-17.25Q305.37-20.85 301.22-20.85L301.22-20.85Q299.37-20.85 298.17-19.7 296.97-18.55 296.97-17L296.97-17Q296.97-14.6 299.72-13.55ZM323.07-22.2L323.07-22.2Q326.52-22.2 328.52-19.9 330.52-17.6 330.52-13.15L330.52-13.15Q330.52-12.25 330.42-11.15L330.42-11.15 316.77-11.15 316.77-10.8Q316.77-6.05 318.49-3.33 320.22-0.6 322.94-0.6 325.67-0.6 327.42-2 329.17-3.4 329.82-6L329.82-6 330.77-5.8Q330.17-2.75 328.02-1.07 325.87 0.6 323.07 0.6L323.07 0.6Q318.72 0.6 315.84-2.45 312.97-5.5 312.97-10.78 312.97-16.05 315.87-19.13 318.77-22.2 323.07-22.2ZM327.07-14.85L327.07-14.85Q327.07-21 322.47-21L322.47-21Q320.17-21 318.54-18.5 316.92-16 316.82-12.15L316.82-12.15 326.87-12.15Q327.07-13.85 327.07-14.85ZM347.76-22.2Q349.71-22.2 350.94-20.55 352.16-18.9 352.16-16.4 352.16-13.9 350.11-13.9L350.11-13.9Q348.91-13.9 348.16-14.65L348.16-14.65Q348.81-16.1 348.81-17.6L348.81-17.6Q348.81-20.25 346.61-20.25L346.61-20.25Q344.76-20.25 343.34-17.18 341.91-14.1 341.91-8.25L341.91-8.25 341.91-1.6Q341.91-0.9 342.61-0.9L342.61-0.9 345.96-0.9 345.96 0 335.26 0 335.26-0.9 337.61-0.9Q338.31-0.9 338.31-1.6L338.31-1.6 338.31-20Q338.31-20.7 337.61-20.7L337.61-20.7 335.26-20.7 335.26-21.6 337.71-21.6Q340.71-21.6 341.91-21.9L341.91-21.9 341.91-15.5Q342.71-18.95 344.26-20.58 345.81-22.2 347.76-22.2ZM366.91-20.7L366.91-21.6 373.26-21.6 373.26-20.7 371.41-20.7Q370.96-20.7 370.71-20L370.71-20 363.26 0 361.91 0 354.46-20Q354.21-20.7 353.76-20.7L353.76-20.7 351.91-20.7 351.91-21.6 360.41-21.6 360.41-20.7 357.91-20.7 363.66-4.9 369.46-20.7 366.91-20.7ZM378.06-1.6L378.06-1.6 378.06-20Q378.06-20.7 377.36-20.7L377.36-20.7 375.01-20.7 375.01-21.6 377.46-21.6Q380.46-21.6 381.66-21.9L381.66-21.9 381.66-1.5Q381.66-0.9 382.36-0.9L382.36-0.9 384.71-0.9 384.71 0 375.01 0 375.01-0.9 377.36-0.9Q378.06-0.9 378.06-1.6ZM378.18-27.13Q377.51-27.8 377.51-28.8 377.51-29.8 378.18-30.48 378.86-31.15 379.86-31.15 380.86-31.15 381.53-30.48 382.21-29.8 382.21-28.8 382.21-27.8 381.53-27.13 380.86-26.45 379.86-26.45 378.86-26.45 378.18-27.13ZM398.41-21L398.41-21Q395.56-21 393.78-18.28 392.01-15.55 392.01-10.8 392.01-6.05 393.73-3.33 395.46-0.6 398.18-0.6 400.91-0.6 402.66-2 404.41-3.4 405.06-6L405.06-6 406.01-5.8Q405.41-2.75 403.26-1.07 401.11 0.6 398.31 0.6L398.31 0.6Q393.96 0.6 391.08-2.45 388.21-5.5 388.21-10.8 388.21-16.1 391.11-19.15 394.01-22.2 398.41-22.2L398.41-22.2Q401.81-22.2 403.51-20.68 405.21-19.15 405.21-16.6L405.21-16.6Q405.21-13.3 403.36-13.3L403.36-13.3Q401.86-13.3 400.96-14.1L400.96-14.1Q401.66-15.6 401.66-17.23 401.66-18.85 400.83-19.93 400.01-21 398.41-21ZM419.35-22.2L419.35-22.2Q422.8-22.2 424.8-19.9 426.8-17.6 426.8-13.15L426.8-13.15Q426.8-12.25 426.7-11.15L426.7-11.15 413.05-11.15 413.05-10.8Q413.05-6.05 414.78-3.33 416.5-0.6 419.23-0.6 421.95-0.6 423.7-2 425.45-3.4 426.1-6L426.1-6 427.05-5.8Q426.45-2.75 424.3-1.07 422.15 0.6 419.35 0.6L419.35 0.6Q415 0.6 412.13-2.45 409.25-5.5 409.25-10.78 409.25-16.05 412.15-19.13 415.05-22.2 419.35-22.2ZM423.35-14.85L423.35-14.85Q423.35-21 418.75-21L418.75-21Q416.45-21 414.83-18.5 413.2-16 413.1-12.15L413.1-12.15 423.15-12.15Q423.35-13.85 423.35-14.85ZM437.8-13.55L437.8-13.55 443-11.6Q444.85-10.9 445.83-9.47 446.8-8.05 446.8-6.3L446.8-6.3Q446.8-3.6 444.65-1.5 442.5 0.6 438.88 0.6 435.25 0.6 432.05-0.75L432.05-0.75Q432.35-1.95 432.35-4.95L432.35-4.95 432.35-6.95 433.25-6.95 433.6-4.35Q434.05-0.6 438.85-0.6L438.85-0.6Q441-0.6 442.43-1.93 443.85-3.25 443.85-4.95L443.85-4.95Q443.85-7.3 441-8.35L441-8.35 435.8-10.3Q434.05-10.95 433.15-12.35 432.25-13.75 432.25-15.5L432.25-15.5Q432.25-18.15 434.15-20.18 436.05-22.2 438.93-22.2 441.8-22.2 445.4-20.85L445.4-20.85Q445.1-19.65 445.1-16.65L445.1-16.65 445.1-14.65 444.2-14.65 443.85-17.25Q443.45-20.85 439.3-20.85L439.3-20.85Q437.45-20.85 436.25-19.7 435.05-18.55 435.05-17L435.05-17Q435.05-14.6 437.8-13.55ZM483.4-14.6L483.4-14.6 483.4-1.5Q483.4-0.9 484.1-0.9L484.1-0.9 486.45-0.9 486.45 0 477.45 0 477.45-0.9 479.1-0.9Q479.8-0.9 479.8-1.5L479.8-1.5 479.8-15.25Q479.8-17.8 478.67-19.03 477.55-20.25 475.7-20.25L475.7-20.25Q473.1-20.25 471.4-17.18 469.7-14.1 469.7-8.35L469.7-8.35 469.7-1.6Q469.7-0.9 470.4-0.9L470.4-0.9 472.05-0.9 472.05 0 463.05 0 463.05-0.9 465.4-0.9Q466.1-0.9 466.1-1.5L466.1-1.5 466.1-30.8Q466.1-31.5 465.4-31.5L465.4-31.5 463.05-31.5 463.05-32.4 465.5-32.4Q468.5-32.4 469.7-32.7L469.7-32.7 469.7-15.1Q471.4-22.2 477.2-22.2L477.2-22.2Q479.8-22.2 481.6-20.33 483.4-18.45 483.4-14.6ZM500.04-22.2L500.04-22.2Q503.49-22.2 505.49-19.9 507.49-17.6 507.49-13.15L507.49-13.15Q507.49-12.25 507.39-11.15L507.39-11.15 493.74-11.15 493.74-10.8Q493.74-6.05 495.47-3.33 497.19-0.6 499.92-0.6 502.64-0.6 504.39-2 506.14-3.4 506.79-6L506.79-6 507.74-5.8Q507.14-2.75 504.99-1.07 502.84 0.6 500.04 0.6L500.04 0.6Q495.69 0.6 492.82-2.45 489.94-5.5 489.94-10.78 489.94-16.05 492.84-19.13 495.74-22.2 500.04-22.2ZM504.04-14.85L504.04-14.85Q504.04-21 499.44-21L499.44-21Q497.14-21 495.52-18.5 493.89-16 493.79-12.15L493.79-12.15 503.84-12.15Q504.04-13.85 504.04-14.85ZM524.29-11.2L524.29-11.65 524.34-13.4 524.34-15.15Q524.34-21 520.54-21L520.54-21Q518.89-21 517.97-19.88 517.04-18.75 517.04-17.25 517.04-15.75 517.44-14.65L517.44-14.65Q516.59-13.9 515.09-13.9 513.59-13.9 513.59-16.35 513.59-18.8 515.52-20.5 517.44-22.2 520.99-22.2L520.99-22.2Q527.94-22.2 527.94-14L527.94-14 527.94-3.75Q527.94-1.05 529.44-1.05L529.44-1.05Q530.14-1.05 530.67-1.7 531.19-2.35 531.19-3.2 531.19-4.05 531.04-4.8L531.04-4.8 531.99-4.95Q532.19-4.2 532.19-3.3L532.19-3.3Q532.19-1.5 531.12-0.45 530.04 0.6 528.29 0.6 526.54 0.6 525.44-0.83 524.34-2.25 524.34-5.1L524.34-5.1 524.34-6Q523.49-2.6 521.64-1 519.79 0.6 517.37 0.6 514.94 0.6 513.47-0.93 511.99-2.45 511.99-4.98 511.99-7.5 514.34-9.47 516.69-11.45 521.09-11.45L521.09-11.45Q522.04-11.45 524.29-11.2L524.29-11.2ZM518.49-1.3L518.49-1.3Q520.59-1.3 522.27-3.68 523.94-6.05 524.24-10.35L524.24-10.35Q523.74-10.4 522.84-10.4L522.84-10.4Q518.84-10.4 517.12-8.72 515.39-7.05 515.39-4.85L515.39-4.85Q515.39-3.4 516.24-2.35 517.09-1.3 518.49-1.3ZM547.69-22.2Q549.64-22.2 550.86-20.55 552.09-18.9 552.09-16.4 552.09-13.9 550.04-13.9L550.04-13.9Q548.84-13.9 548.09-14.65L548.09-14.65Q548.74-16.1 548.74-17.6L548.74-17.6Q548.74-20.25 546.54-20.25L546.54-20.25Q544.69-20.25 543.26-17.18 541.84-14.1 541.84-8.25L541.84-8.25 541.84-1.6Q541.84-0.9 542.54-0.9L542.54-0.9 545.89-0.9 545.89 0 535.19 0 535.19-0.9 537.54-0.9Q538.24-0.9 538.24-1.6L538.24-1.6 538.24-20Q538.24-20.7 537.54-20.7L537.54-20.7 535.19-20.7 535.19-21.6 537.64-21.6Q540.64-21.6 541.84-21.9L541.84-21.9 541.84-15.5Q542.64-18.95 544.19-20.58 545.74-22.2 547.69-22.2Z" opacity="1" transform="matrix(1,0,0,1,0,0)" fill="#000000" class="slogan-text-1" data-fill-palette-color="secondary" id="text-1"></path></svg></g></svg></g></svg></g></svg></g><g transform="matrix(1,0,0,1,56.60873753986522,0)"><svg viewBox="0 0 78.78252492026957 79.83581577967176" height="79.83581577967176" width="78.78252492026957"><g><svg xmlns:x="http://ns.adobe.com/Extensibility/1.0/" xmlns:i="http://ns.adobe.com/AdobeIllustrator/10.0/" xmlns:graph="http://ns.adobe.com/Graphs/1.0/" xmlns="http://www.w3.org/2000/svg" xmlns:xlink="http://www.w3.org/1999/xlink" xmlns:a="http://ns.adobe.com/AdobeSVGViewerExtensions/3.0/" version="1.1" x="0" y="0" viewBox="3.9034054279327393 3.286750078201294 92.1946029663086 93.42720794677734" enable-background="new 0 0 100 100" xml:space="preserve" height="79.83581577967176" width="78.78252492026957" class="icon-icon-0" data-fill-palette-color="accent" id="icon-0"><path d="M58.248 32.491c-0.431 0.392-7.462 6.679-16.153 14.449 1.385 1.687 3.008 3.5 4.927 5.42 2.447 2.438 4.725 4.412 6.784 6.01 8.384-9.378 15.275-17.082 15.629-17.474 0.94-1.034 1.693-0.719 2.101-0.603 6.896 1.952 14.677 0.232 18.228-7.172 3.279-6.841 0.598-12.116-1.588-15.76-0.524-0.885-1.366-0.354-1.586 0.11-0.232 0.47-4.169 8.688-4.169 8.688-1.052 2.201-3.628 3.849-8.782 1.382-5.153-2.472-5.469-5.513-4.413-7.708 0 0 3.677-7.665 4.169-8.687 0.488-1.029-0.258-1.289-0.706-1.228-4.22 0.552-10.035 1.775-13.319 8.626-1.886 3.927-1.772 7.775-0.382 11.154C59.193 30.207 59.43 31.44 58.248 32.491zM26.802 72.582c-2.071-2.074-4.103-4.264-6.071-6.536C13.18 72.798 7.503 77.875 7.503 77.875c-0.292 0.264-0.58 0.553-0.851 0.845C2.676 83.172 3.06 89.995 7.503 93.967c4.444 3.975 11.265 3.589 15.238-0.853 0 0 5.096-5.701 11.917-13.333C31.917 77.465 29.271 75.049 26.802 72.582zM12.339 8.552C4.34 16.687 3.904 26.983 3.904 26.983c1.999 9.987 13.155 28.185 26.734 41.756 13.573 13.582 31.767 24.74 41.761 26.73 0 0 10.298-0.426 18.426-8.433l0.007 0.011 4.792-4.788c0.632-0.631 0.632-1.676 0-2.307l-20.32-20.321c-0.638-0.631-1.677-0.631-2.307 0l-4.79 4.793 0.012 0.018-4.503 5.579c0 0-8.538-1.841-20.527-13.83C31.196 44.203 29.354 35.665 29.354 35.665l5.583-4.512 0.014 0.022 0.161-0.161 0.002-0.006 0 0 4.631-4.623c0.633-0.642 0.633-1.675 0-2.312L19.426 3.763c-0.633-0.635-1.669-0.635-2.3 0l-4.792 4.789H12.339z" fill="#000000" data-fill-palette-color="accent"></path></svg></g></svg></g><g></g></svg></g></svg></g></svg></g></svg></g><defs></defs></svg><rect width="320" height="360" fill="none" stroke="none" visibility="hidden"></rect></g></svg></g></svg>