<svg width="96" height="96" viewBox="0 0 96 96" fill="none" xmlns="http://www.w3.org/2000/svg">
<g clip-path="url(#clip0_11_92)">
<path d="M80 62C75 62 70.2 61.2 65.72 59.72C64.32 59.28 62.76 59.6 61.64 60.68L52.84 69.48C41.52 63.72 32.24 54.48 26.48 43.12L35.28 34.28C36.4 33.24 36.72 31.68 36.28 30.28C34.8 25.8 34 21 34 16C34 13.8 32.2 12 30 12H16C13.8 12 12 13.8 12 16C12 53.56 42.44 84 80 84C82.2 84 84 82.2 84 80V66C84 63.8 82.2 62 80 62ZM76 48H84C84 28.12 67.88 12 48 12V20C63.48 20 76 32.52 76 48ZM60 48H68C68 36.96 59.04 28 48 28V36C54.64 36 60 41.36 60 48Z" fill="white"/>
</g>
<defs>
<clipPath id="clip0_11_92">
<rect width="96" height="96" fill="white"/>
</clipPath>
</defs>
</svg>
